<svg xmlns="http://www.w3.org/2000/svg" xmlns:xlink="http://www.w3.org/1999/xlink" version="1.1" x="0px" y="0px" viewBox="0 0 100 100" enable-background="new 0 0 100 100" xml:space="preserve"><g><polygon points="73,37.2 93.8,37.2 93.8,36.2 73.5,36.2  "></polygon><path d="M70.3,43h21.5c0,0,1.7-0.5,2-2.2v-3.1l-21,0L70.3,43z"></path><path d="M31,71.2l5.5,1.6c-1.5-4.8,2.1-7.6,3.2-8.4l-4.8-1.4L31,71.2z"></path><path d="M92.3,26H13.2c0,0-1.7,0.2-1.7,2.8v6.8H16l-0.1-0.1l1.7-3.5l0.5,0.2l-1.6,3.4h0.7L17,35.5l1.7-3.5l0.5,0.2l-1.6,3.4h0.7   l-0.1-0.1l1.7-3.5l0.5,0.2l-1.6,3.4h0.7l-0.1-0.1l1.7-3.5l0.5,0.2l-1.6,3.4h0.7l-0.1-0.1l1.7-3.5l0.5,0.2l-1.6,3.4h0.7l-0.1-0.1   L23,32l0.5,0.2l-1.6,3.4h0.7l-0.1-0.1l1.7-3.5l0.5,0.2L23,35.6h0.7l-0.1-0.1l1.7-3.5l0.5,0.2l-1.6,3.4h0.7l-0.1-0.1l1.7-3.5   l0.5,0.2l-1.6,3.4h0.7l-0.1-0.1l1.7-3.5l0.5,0.2l-1.6,3.4h0.7l-0.1-0.1l1.7-3.5l0.5,0.2l-1.6,3.4H28l-0.1-0.1l1.7-3.5l0.5,0.2   l-1.6,3.4h65.4v-8C93.8,27.6,93.8,26,92.3,26z"></path><path d="M43.3,56.8c-0.6-0.7-1.1-1.7-1.4-3.1c0,0,0,0,0,0l-0.9-0.2c-1.9-0.4-3.1,3-3.1,3l0,0L35,62.6l4.8,1.4   c-1.4-5.4,3.4-6.8,3.4-6.8s0.1,0,0.2,0C43.4,57,43.3,56.9,43.3,56.8C43.3,56.9,43.3,56.9,43.3,56.8z"></path><polygon points="19.8,23.4 18.2,23.4 16.9,25.5 19.8,25.5  "></polygon><path d="M68.9,44l-16.3,0.1v1.5l8.5,0.2c1.7,0.3,2.4,0.5,3,5.1c0.6,4.5-3.3,5.3-3.3,5.3l-11.5,0.1c-6.4-1-4.9-7.5-4.9-7.5l-1.2-0.3   v-0.1c0,0,0,0,0,0c0,0,0,0,0,0c0.3-3.4,2.7-4.8,5-5.3c0,0,0,0,0,0c1.9-0.4,3.7-0.2,4.1-0.2c0,0,0.1,0,0.1,0l0.7-1.6l0.3-0.7   l2.1-4.4H35c0.2,0.3,0.3,0.7,0.3,1.1c0,0.9-0.5,1.7-1.2,1.7l0,0h0l0,0h0h-1.3h-1.3c-0.7,0-1.2-0.8-1.2-1.7c0-0.4,0.1-0.8,0.3-1.1   H18.9h-7.3c-2.2,5.3,2.3,5.4,2.3,5.4c12.9,1.7-4.2,22.7-7.4,29.8c-1.4,3.1-1.3,5.1-0.8,6.3l0.1-0.5l19.5,2.3l1.1-2.6l0.8,0.2   L26.7,77l0.4,0.1l0.4,0.1l0,0l10.2-21.8c1-2.1,2.4-2.4,3.4-2.3l-0.1,0l0.1,0c0.4,0,0.7,0.1,0.8,0.2l0,0l1.2-4.8c0,0,0,0,0,0   c0,0,0,0,0,0l-1.2,4.8l0,0c0.2,0,0.2,0.2,0.3,0.4c0.2,0.9,0.5,1.6,0.8,2.2c0,0,0.1,0.1,0.1,0.1c0.3,0.4,0.6,0.8,0.9,1   c0.6,0.1,1.4,0.3,1.9,1c1.1,1.4,2.2,1.1,2.2,1.1s16.4,0.1,18.7-0.6c2.3-0.7,1.2-2.7,1.2-2.7C65.1,45.3,68.9,44,68.9,44z"></path><path d="M94.7,28c-0.2,0-0.4,0.2-0.4,0.4v5.9c0,0.2,0.2,0.4,0.4,0.4c0.2,0,0.4-0.2,0.4-0.4v-5.9C95.1,28.2,94.9,28,94.7,28z"></path><path d="M51.8,44.2l0-0.2c-7-0.6-7.3,3.5-7.3,3.5l2.8,0.5c0.5,3.6,5.3,6.1,5.5,6.1c0.4,0,1.9-0.4,0-2.5c-2-2.3-1.1-6-1.1-6   L51.8,44.2z"></path><polygon points="56.5,36.2 54.5,40.4 53.2,43 69.4,43 72.6,36.2  "></polygon><path d="M28.1,77.4l4.8,1.4c0-3.1,2.5-4.9,3.4-5.5l-5.5-1.6L28.1,77.4z"></path><polygon points="88.9,25 87,25 86.3,25.5 89.9,25.5  "></polygon><path d="M26.7,77.5l-1.1,2.6L5.7,77.7c0.7,1.5,2.1,1.9,2.1,1.9l24.5,3.1l1.2-1c-0.4-0.8-0.6-1.6-0.6-2.3L26.7,77.5z"></path><path d="M42,53.2C42.1,53.3,42.1,53.3,42,53.2L42,53.2L42,53.2z"></path></g></svg>